<?xml version="1.0" ?><!DOCTYPE svg  PUBLIC '-//W3C//DTD SVG 1.1//EN'  'http://www.w3.org/Graphics/SVG/1.1/DTD/svg11.dtd'><svg height="256px" style="shape-rendering:geometricPrecision; text-rendering:geometricPrecision; image-rendering:optimizeQuality; fill-rule:evenodd; clip-rule:evenodd" version="1.1" viewBox="0 0 256000 256002" width="256px" xml:space="preserve" xmlns="http://www.w3.org/2000/svg" xmlns:xlink="http://www.w3.org/1999/xlink"><defs><style type="text/css">
   <![CDATA[
    .fil1 {fill:none}
    .fil0 {fill:#3B5998;fill-rule:nonzero}
   ]]>
  </style></defs><g id="Layer_x0020_1"><path class="fil0" d="M69538 83518l30682 0 0 -39035c0,-119 9,-236 23,-352 633,-11997 3058,-22838 8647,-30797 5797,-8256 14810,-13334 28435,-13334l49137 0c1504,0 2724,1220 2724,2724l0 39346c0,1505 -1220,2723 -2724,2723l-19397 0c-5003,0 -8757,767 -11192,2778l-1734 -2096 1734 2100c-53,44 -106,85 -161,124 -2258,1958 -3530,5249 -3806,10338l3 0 0 25481 34553 0c1504,0 2724,1220 2724,2724l0 41759c0,1504 -1220,2724 -2724,2724l-34553 0 0 122554c0,1503 -1219,2723 -2724,2723l-46241 0c-1504,0 -2724,-1220 -2724,-2723l0 -122554 -30682 0c-1505,0 -2724,-1220 -2724,-2724l0 -41759c0,-1504 1219,-2724 2724,-2724z"/></g><rect class="fil1" height="256000" width="256000" y="1"/></svg>