<?xml version="1.0" ?><!DOCTYPE svg  PUBLIC '-//W3C//DTD SVG 1.1//EN'  'http://www.w3.org/Graphics/SVG/1.1/DTD/svg11.dtd'><svg height="256px" style="shape-rendering:geometricPrecision; text-rendering:geometricPrecision; image-rendering:optimizeQuality; fill-rule:evenodd; clip-rule:evenodd" version="1.1" viewBox="0 0 256000 256001" width="256px" xml:space="preserve" xmlns="http://www.w3.org/2000/svg" xmlns:xlink="http://www.w3.org/1999/xlink"><defs><style type="text/css">
   <![CDATA[
    .fil1 {fill:none}
    .fil0 {fill:#0274B3;fill-rule:nonzero}
   ]]>
  </style></defs><g id="Layer_x0020_1"><path class="fil0" d="M244850 256001l-50159 0 -2722 0 0 -2722 0 -108695c0,-5843 -786,-10738 -3233,-14009 -2349,-3140 -6474,-4973 -13302,-4973 -22099,0 -27626,16752 -28338,19296l0 108381 0 2722 -2724 0 -50149 0 -2724 0 0 -2722 0 -175938 0 -2723 2724 0 50149 0 2724 0 0 2723 0 11636c3721,-2416 8664,-5219 14691,-7693 8814,-3620 19933,-6542 32904,-6542 10347,0 27372,3692 39352,20074 7873,10764 13531,26995 13531,51237l0 107226 0 2722 -2724 0z"/><path class="fil0" d="M36310 52686c-7254,0 -13830,-2954 -18592,-7743 -4749,-4774 -7689,-11365 -7689,-18662 0,-7255 2944,-13824 7701,-18579 4756,-4758 11328,-7702 18580,-7702l21 11c7255,69 13818,3039 18560,7782 4756,4756 7699,11295 7699,18488 0,7298 -2938,13891 -7687,18665 -4762,4787 -11338,7740 -18593,7740z"/><polygon class="fil0" points="61469,256001 11150,256001 8427,256001 8427,253279 8427,77341 8427,74618 11150,74618 61469,74618 64192,74618 64192,77341 64192,253279 64192,256001 "/></g><rect class="fil1" height="256000" width="256000" y="1"/></svg>